<svg width="734" height="734" viewBox="0 0 734 734" fill="none" xmlns="http://www.w3.org/2000/svg">
<path d="M700 500H600V466.667C606.807 466.659 613.448 464.568 619.031 460.675C624.614 456.781 628.871 451.272 631.231 444.887C633.59 438.503 633.938 431.549 632.228 424.96C630.519 418.372 626.833 412.465 621.667 408.033L400 218V133.333H433.333C442.174 133.333 450.652 129.821 456.904 123.57C463.155 117.319 466.667 108.841 466.667 100C466.667 91.1594 463.155 82.681 456.904 76.4298C450.652 70.1786 442.174 66.6667 433.333 66.6667H400V33.3333C400 24.4928 396.488 16.0143 390.237 9.76311C383.986 3.51189 375.507 0 366.667 0C357.826 0 349.348 3.51189 343.096 9.76311C336.845 16.0143 333.333 24.4928 333.333 33.3333V66.6667H300C291.159 66.6667 282.681 70.1786 276.43 76.4298C270.179 82.681 266.667 91.1594 266.667 100C266.667 108.841 270.179 117.319 276.43 123.57C282.681 129.821 291.159 133.333 300 133.333H333.333V218L111.667 408C104.952 413.751 100.797 421.933 100.116 430.747C99.4347 439.562 102.283 448.286 108.033 455C111.172 458.611 115.064 461.491 119.434 463.438C123.805 465.384 128.549 466.35 133.333 466.267V500H33.3333C24.4928 500 16.0143 503.512 9.76311 509.763C3.51189 516.014 0 524.493 0 533.333V700C0 708.841 3.51189 717.319 9.76311 723.57C16.0143 729.821 24.4928 733.333 33.3333 733.333H700C708.841 733.333 717.319 729.821 723.57 723.57C729.821 717.319 733.333 708.841 733.333 700V533.333C733.333 524.493 729.821 516.014 723.57 509.763C717.319 503.512 708.841 500 700 500ZM66.6667 566.667H133.333V666.667H66.6667V566.667ZM200 533.333V420L366.667 277.167L533.333 420V666.667H466.667V566.667C466.667 540.145 456.131 514.71 437.377 495.956C418.624 477.202 393.188 466.667 366.667 466.667C340.145 466.667 314.71 477.202 295.956 495.956C277.202 514.71 266.667 540.145 266.667 566.667V666.667H200V533.333ZM333.333 666.667V566.667C333.333 557.826 336.845 549.348 343.096 543.096C349.348 536.845 357.826 533.333 366.667 533.333C375.507 533.333 383.986 536.845 390.237 543.096C396.488 549.348 400 557.826 400 566.667V666.667H333.333ZM666.667 666.667H600V566.667H666.667V666.667Z" fill="black"/>
</svg>
