<svg width="800" height="640" viewBox="0 0 800 640" fill="none" xmlns="http://www.w3.org/2000/svg">
<path d="M580.575 308.35L440 224V160H500C511.05 160 520 151.05 520 140V100C520 88.95 511.05 80 500 80H440V20C440 8.95 431.05 0 420 0H380C368.95 0 360 8.95 360 20V80H300C288.95 80 280 88.95 280 100V140C280 151.05 288.95 160 300 160H360V224L219.425 308.35C213.501 311.903 208.598 316.93 205.194 322.941C201.789 328.952 200 335.742 200 342.65V640H320V520C320 475.813 355.813 440 400 440C444.187 440 480 475.813 480 520V640H600V342.65C600 328.6 592.625 315.575 580.575 308.35ZM0 494.95V620C0 631.05 8.95 640 20 640H160V400L24.2375 458.175C17.0442 461.263 10.9143 466.393 6.60639 472.929C2.29846 479.466 0.00158782 487.122 0 494.95ZM775.762 458.175L640 400V640H780C791.05 640 800 631.05 800 620V494.95C800 478.95 790.462 464.488 775.762 458.175Z" fill="black"/>
</svg>
