<svg width="667" height="667" viewBox="0 0 667 667" fill="none" xmlns="http://www.w3.org/2000/svg">
<path d="M333.347 200.001L226.605 252.037C204.866 262.635 193.996 267.934 186.048 275.934C179.021 283.011 173.67 291.571 170.39 300.991C166.68 311.641 166.68 323.731 166.68 347.917V633.334H500.014V347.917C500.014 323.731 500.014 311.641 496.304 300.991C493.024 291.571 487.674 283.011 480.647 275.934C472.697 267.934 461.827 262.635 440.087 252.037L333.347 200.001ZM333.347 200.001V33.334M400.014 100.001H266.68M166.68 366.667L92.306 403.854C70.9013 414.554 60.199 419.904 52.3797 427.887C45.465 434.947 40.2063 443.457 36.984 452.797C33.3403 463.364 33.3403 475.327 33.3403 499.261V633.334H633.34V499.257C633.34 475.327 633.34 463.361 629.697 452.797C626.474 443.457 621.217 434.947 614.304 427.887C606.484 419.904 595.78 414.554 574.377 403.851L500.014 366.667M400.014 633.334V500.001C400.014 463.181 370.167 433.334 333.347 433.334C296.527 433.334 266.68 463.181 266.68 500.001V633.334H400.014Z" stroke="black" stroke-width="66.6667" stroke-linecap="round" stroke-linejoin="round"/>
</svg>
