<svg width="800" height="800" viewBox="0 0 800 800" fill="none" xmlns="http://www.w3.org/2000/svg">
<path fill-rule="evenodd" clip-rule="evenodd" d="M666.667 33.334C721.897 33.334 766.667 78.1056 766.667 133.334V666.667C766.667 721.897 721.897 766.667 666.667 766.667H133.333C78.1052 766.667 33.3335 721.897 33.3335 666.667V133.334C33.3335 78.1056 78.1052 33.334 133.333 33.334H666.667ZM666.667 100.001C685.077 100.001 700 114.925 700 133.334V666.667C700 685.077 685.077 700.001 666.667 700.001H500V466.664H569.207C583.553 466.664 596.29 457.484 600.83 443.871L615.597 399.571C620.993 383.381 608.943 366.664 591.88 366.664H500V299.998C500 283.331 516.667 266.665 533.333 266.665H600C618.41 266.665 633.333 251.741 633.333 233.331V210.465C633.333 199.698 626.457 190.044 616.043 187.296C572.35 175.766 533.333 175.766 533.333 175.766C450 175.766 400 233.331 400 283.331V366.664H333.333C314.924 366.664 300 381.587 300 399.997V433.331C300 451.741 314.924 466.664 333.333 466.664H400V700.001H133.333C114.924 700.001 100 685.077 100 666.667V133.334C100 114.925 114.924 100.001 133.333 100.001H666.667Z" fill="black"/>
</svg>
