<svg width="800" height="800" viewBox="0 0 800 800" fill="none" xmlns="http://www.w3.org/2000/svg">
<g clip-path="url(#clip0_8279_10)">
<path fill-rule="evenodd" clip-rule="evenodd" d="M589.589 328.965L576.71 422.972H422.021V751.997H328.014V422.972H187.003V328.965H328.014V242.807C328.014 123.278 401.434 46.0033 515.135 46.0033C563.831 46.0033 594.195 48.5887 611.727 50.9387L610.364 139.964L538.073 140.105C536.099 139.917 489.001 136.25 455.017 167.461C433.114 187.531 422.021 216.391 422.021 253.148V328.965H589.589V328.965ZM486.557 202.29C505.076 185.04 533.936 186.92 536.052 187.014L656.663 186.967L659.248 13.0071L641.105 8.54167C629.448 5.675 593.772 -1 515.135 -1C375.112 -1 281.01 97.0025 281.01 242.807V281.961H140V469.975H281.01V799H469.025V469.975H617.65L643.455 281.961H469.025V253.148C469.025 230.258 474.947 213.148 486.557 202.29Z" fill="black"/>
</g>
<defs>
<clipPath id="clip0_8279_10">
<rect width="800" height="800" fill="white"/>
</clipPath>
</defs>
</svg>
