<svg width="800" height="800" viewBox="0 0 800 800" fill="none" xmlns="http://www.w3.org/2000/svg">
<path d="M400 67C216.666 67 66.6665 216.667 66.6665 401.001C66.6665 567.667 188.666 706.001 348 731.001V497.667H263.333V401.001H348V327.333C348 243.667 397.667 197.667 474 197.667C510.333 197.667 548.333 204 548.333 204V286.333H506.333C465 286.333 452 312 452 338.334V401.001H544.666L529.666 497.667H452V731.001C530.547 718.594 602.073 678.517 653.663 618.001C705.253 557.487 733.513 480.521 733.333 401.001C733.333 216.667 583.333 67 400 67Z" fill="black"/>
</svg>
