<svg width="800" height="800" viewBox="0 0 800 800" fill="none" xmlns="http://www.w3.org/2000/svg">
<path fill-rule="evenodd" clip-rule="evenodd" d="M306.41 140.039C397.344 140.039 471.401 214.049 471.401 305.029V352.17C471.401 402.986 447.831 447.911 411.58 478.222C450.801 484.02 489.644 492.788 527.545 505.139C578.55 521.732 612.821 570.004 612.821 625.205V708.69L601.649 715.619C539.801 754.086 438.308 800 306.41 800C233.579 800 123.177 785.34 11.125 715.62L0 708.69V629.777C0 571.182 37.1933 520.177 92.4888 502.782C128.08 491.657 164.377 483.407 200.958 477.986C164.896 447.675 141.42 402.845 141.42 352.17V305.029C141.42 214.049 215.43 140.039 306.41 140.039ZM493.085 0C584.019 0 658.075 74.01 658.075 164.99V212.13C658.075 262.947 634.505 307.919 598.255 338.183C637.475 343.981 676.272 352.796 714.22 365.1C765.225 381.787 799.496 430.012 799.496 485.213V568.698L788.371 575.627C756.032 595.757 712.617 617.723 659.961 634.27V625.219C659.961 549.512 612.633 483.233 542.158 460.323C526.82 455.323 511.318 450.842 495.678 446.888C510.574 417.802 518.541 385.465 518.541 352.184V305.043C518.541 200.675 442.692 114.22 343.368 96.6371C369.484 39.7862 426.524 0 493.085 0Z" fill="black"/>
</svg>
