<svg width="800" height="800" viewBox="0 0 800 800" fill="none" xmlns="http://www.w3.org/2000/svg">
<path fill-rule="evenodd" clip-rule="evenodd" d="M752.941 529.204C724.33 549.393 674.306 577.769 609.647 595.275C601.788 552.546 571.012 517.204 527.953 503.981C489.741 492.216 450.824 483.84 411.482 478.287C441.459 452.969 462.165 417.534 468.141 376.969C477.27 376.64 486.823 376.451 497.741 376.451C566.917 376.828 635.718 387.416 702.306 407.887C732.565 417.204 752.941 444.451 752.941 475.745V529.204ZM564.706 670.381C517.13 704.028 427.106 752.922 305.882 752.922C251.953 752.922 147.906 742.004 47.0587 670.38V616.734C47.0587 585.487 67.4825 558.193 97.7879 548.875C165.459 528.169 235.435 517.675 305.882 517.675H309.412C378.823 518.004 447.67 528.546 514.165 548.969C544.377 558.24 564.706 585.487 564.706 616.734V670.381H564.706ZM188.235 352.922V305.863C188.235 241.016 240.988 188.216 305.882 188.216C370.777 188.216 423.53 241.016 423.53 305.863V352.922C423.53 417.816 370.777 470.569 305.882 470.569C240.988 470.569 188.235 417.816 188.235 352.922H188.235ZM494.117 47.0396C525.459 47.0396 555.012 59.3221 577.27 81.5809C599.482 103.84 611.765 133.345 611.765 164.687V211.745C611.765 276.64 559.012 329.393 494.117 329.393C485.93 329.393 478.117 328.31 470.588 326.71V305.863C470.588 240.687 432.235 184.734 377.177 158.051C380.659 96.3571 431.53 47.0396 494.117 47.0396ZM716.141 362.898C678.07 351.228 639.247 342.804 599.577 337.204C635.482 306.993 658.823 262.287 658.823 211.746V164.686C658.823 120.78 641.694 79.4155 610.541 48.3096C579.388 17.1567 538.07 -0.0195312 494.117 -0.0195312C410.494 -0.0195312 341.977 62.898 331.53 143.792C323.106 142.428 314.682 141.157 305.882 141.157C215.059 141.157 141.177 215.086 141.177 305.863V352.922C141.177 403.463 164.517 448.169 200.47 478.428C161.177 483.933 122.07 492.216 84 503.886C33.7883 519.323 0 564.687 0 616.734V694.099L9.41167 701.158C124.094 787.134 244.33 799.981 305.882 799.981C449.317 799.981 553.223 738.052 602.353 701.158L611.765 694.099V643.887C697.27 622.805 759.953 583.04 790.588 559.981L800 552.923V475.745C800 423.651 766.259 378.287 716.141 362.898Z" fill="black"/>
</svg>
