<svg width="800" height="734" viewBox="0 0 800 734" fill="none" xmlns="http://www.w3.org/2000/svg">
<path d="M800 496.667C800 403.333 750 330 676.667 293.333C710 260 733.333 216.667 733.333 166.667C733.333 73.3333 660 0 566.667 0C496.667 0 440 40 413.333 100C410 100 403.333 100 400 100C396.667 100 390 100 386.667 100C360 40 303.333 0 233.333 0C140 0 66.6667 73.3333 66.6667 166.667C66.6667 216.667 90 260 123.333 293.333C50 330 0 406.667 0 496.667V633.333H166.667V733.333H633.333V633.333H800V496.667ZM566.667 66.6667C623.333 66.6667 666.667 110 666.667 166.667C666.667 220 623.333 266.667 566.667 266.667C566.667 203.333 530 150 476.667 120C493.333 86.6667 526.667 66.6667 566.667 66.6667ZM500 266.667C500 323.333 456.667 366.667 400 366.667C343.333 366.667 300 323.333 300 266.667C300 210 343.333 166.667 400 166.667C456.667 166.667 500 210 500 266.667ZM233.333 66.6667C273.333 66.6667 306.667 86.6667 323.333 120C270 150 233.333 203.333 233.333 266.667C176.667 266.667 133.333 223.333 133.333 166.667C133.333 110 176.667 66.6667 233.333 66.6667ZM170 566.667H66.6667V496.667C66.6667 403.333 136.667 333.333 233.333 333.333C236.667 333.333 240 333.333 243.333 333.333C253.333 356.667 270 376.667 286.667 393.333C223.333 426.667 180 490 170 566.667ZM566.667 666.667H233.333V596.667C233.333 503.333 306.667 433.333 400 433.333C496.667 433.333 566.667 503.333 566.667 596.667V666.667ZM733.333 566.667H630C620 490 573.333 426.667 506.667 393.333C526.667 376.667 540 356.667 550 333.333C553.333 333.333 556.667 333.333 563.333 333.333C660 333.333 730 403.333 730 496.667V566.667H733.333Z" fill="black"/>
</svg>
