<svg width="800" height="800" viewBox="0 0 800 800" fill="none" xmlns="http://www.w3.org/2000/svg">
<path fill-rule="evenodd" clip-rule="evenodd" d="M66.667 199.999C66.667 126.361 126.362 66.666 200 66.666H600C673.637 66.666 733.334 126.361 733.334 199.999V599.999C733.334 673.636 673.637 733.333 600 733.333H200C126.362 733.333 66.667 673.636 66.667 599.999V199.999ZM200 133.333C163.181 133.333 133.334 163.18 133.334 199.999V599.999C133.334 636.819 163.181 666.666 200 666.666H600C636.82 666.666 666.667 636.819 666.667 599.999V199.999C666.667 163.18 636.82 133.333 600 133.333H200ZM400 299.999C344.77 299.999 300 344.769 300 399.999C300 455.229 344.77 499.999 400 499.999C455.23 499.999 500 455.229 500 399.999C500 344.769 455.23 299.999 400 299.999ZM233.334 399.999C233.334 307.952 307.953 233.333 400 233.333C492.047 233.333 566.667 307.952 566.667 399.999C566.667 492.046 492.047 566.666 400 566.666C307.953 566.666 233.334 492.046 233.334 399.999ZM583.334 266.666C610.947 266.666 633.334 244.28 633.334 216.666C633.334 189.052 610.947 166.666 583.334 166.666C555.72 166.666 533.334 189.052 533.334 216.666C533.334 244.28 555.72 266.666 583.334 266.666Z" fill="black"/>
</svg>
