<svg width="800" height="800" viewBox="0 0 800 800" fill="none" xmlns="http://www.w3.org/2000/svg">
<path d="M300 733.333H500C666.667 733.333 733.334 666.666 733.334 499.999V299.999C733.334 133.333 666.667 66.666 500 66.666H300C133.334 66.666 66.667 133.333 66.667 299.999V499.999C66.667 666.666 133.334 733.333 300 733.333Z" stroke="black" stroke-width="50" stroke-linecap="round" stroke-linejoin="round"/>
<path d="M400 516.667C464.433 516.667 516.666 464.434 516.666 400.001C516.666 335.567 464.433 283.334 400 283.334C335.566 283.334 283.333 335.567 283.333 400.001C283.333 464.434 335.566 516.667 400 516.667Z" stroke="black" stroke-width="50" stroke-linecap="round" stroke-linejoin="round"/>
<path d="M587.87 233.334H588.257" stroke="black" stroke-width="66.6667" stroke-linecap="round" stroke-linejoin="round"/>
</svg>
