<svg width="800" height="800" viewBox="0 0 800 800" fill="none" xmlns="http://www.w3.org/2000/svg">
<g clip-path="url(#clip0_8280_26)">
<path d="M427.078 0.818359C630.055 0.818359 796.127 166.891 796.127 369.868V427.529C796.127 630.506 630.054 796.578 427.078 796.578H369.417C166.439 796.578 0.367188 630.506 0.367188 427.529V369.868C0.367188 166.891 166.439 0.818359 369.417 0.818359H427.078ZM405.502 200.825L400.367 200.818C357.611 200.818 314.855 202.232 314.855 202.232C252.406 202.232 201.78 252.857 201.78 315.306C201.78 315.306 200.482 352.02 200.374 391.426L200.367 396.578C200.367 440.7 201.78 486.331 201.78 486.331C201.78 548.78 252.406 599.405 314.855 599.405C314.855 599.405 354.831 600.818 396.128 600.818C440.249 600.818 487.293 599.405 487.293 599.405C549.743 599.405 598.954 550.194 598.954 487.745C598.954 487.745 600.367 442.628 600.367 399.406L600.341 389.262C600.15 350.483 598.953 313.892 598.953 313.892C598.953 251.443 549.742 202.232 487.292 202.232C487.292 202.232 446.586 200.929 405.502 200.825ZM400.367 236.817C435.428 236.817 480.381 237.977 480.381 237.977C531.59 237.977 563.208 269.594 563.208 320.803C563.208 320.803 564.367 364.989 564.367 399.658C564.367 435.1 563.208 480.831 563.208 480.831C563.208 532.04 531.59 563.657 480.381 563.657C480.381 563.657 440.627 564.632 406.134 564.794L396.891 564.817C363.027 564.817 321.766 563.657 321.766 563.657C270.558 563.657 237.527 530.625 237.527 479.418C237.527 479.418 236.367 433.52 236.367 397.34C236.367 363.477 237.527 320.803 237.527 320.803C237.527 269.594 270.559 237.977 321.766 237.977C321.766 237.977 365.306 236.817 400.367 236.817ZM400.366 298.366C343.784 298.366 297.915 344.235 297.915 400.817C297.915 457.399 343.784 503.268 400.366 503.268C456.949 503.268 502.817 457.399 502.817 400.817C502.817 344.235 456.949 298.366 400.366 298.366ZM400.366 334.15C437.186 334.15 467.033 363.998 467.033 400.817C467.033 437.636 437.186 467.484 400.366 467.484C363.548 467.484 333.699 437.636 333.699 400.817C333.699 363.998 363.547 334.15 400.366 334.15ZM507.72 269.935C494.048 269.935 482.965 281.074 482.965 294.813C482.965 308.552 494.048 319.689 507.72 319.689C521.391 319.689 532.474 308.552 532.474 294.813C532.474 281.073 521.391 269.935 507.72 269.935Z" fill="black"/>
</g>
<defs>
<clipPath id="clip0_8280_26">
<rect width="800" height="800" fill="white"/>
</clipPath>
</defs>
</svg>
