<svg width="800" height="600" viewBox="0 0 800 600" fill="none" xmlns="http://www.w3.org/2000/svg">
<path fill-rule="evenodd" clip-rule="evenodd" d="M316.538 137.726C306.221 131.831 293.546 131.873 283.269 137.837C272.992 143.801 266.667 154.785 266.667 166.667V433.334C266.667 445.217 272.992 456.201 283.269 462.164C293.546 468.127 306.221 468.171 316.538 462.274L549.87 328.941C560.257 323.007 566.667 311.964 566.667 300.001C566.667 288.037 560.257 276.994 549.87 271.061L316.538 137.726ZM466.147 300.001L333.333 375.894V224.107L466.147 300.001Z" fill="#0F0F0F"/>
<path fill-rule="evenodd" clip-rule="evenodd" d="M0 300C0 175.009 0 112.513 31.8305 68.7023C42.1103 54.5533 54.5533 42.1103 68.7023 31.8303C112.513 1.98682e-06 175.009 0 300 0H500C624.99 0 687.487 1.98682e-06 731.297 31.8303C745.447 42.1103 757.89 54.5533 768.17 68.7023C800 112.513 800 175.009 800 300C800 424.99 800 487.487 768.17 531.297C757.89 545.447 745.447 557.89 731.297 568.17C687.487 600 624.99 600 500 600H300C175.009 600 112.513 600 68.7023 568.17C54.5533 557.89 42.1103 545.447 31.8305 531.297C0 487.487 0 424.99 0 300ZM300 66.6667H500C563.98 66.6667 606.61 66.7583 638.91 70.2577C669.963 73.622 683.467 79.4827 692.113 85.765C700.6 91.933 708.067 99.3987 714.237 107.888C720.517 116.535 726.377 130.038 729.743 161.09C733.243 193.389 733.333 236.02 733.333 300C733.333 363.98 733.243 406.61 729.743 438.91C726.377 469.963 720.517 483.467 714.237 492.113C708.067 500.6 700.6 508.067 692.113 514.237C683.467 520.517 669.963 526.377 638.91 529.743C606.61 533.243 563.98 533.333 500 533.333H300C236.019 533.333 193.389 533.243 161.09 529.743C130.038 526.377 116.535 520.517 107.888 514.237C99.3987 508.067 91.933 500.6 85.765 492.113C79.4827 483.467 73.622 469.963 70.2577 438.91C66.7583 406.61 66.6667 363.98 66.6667 300C66.6667 236.02 66.7583 193.389 70.2577 161.09C73.622 130.038 79.4827 116.535 85.765 107.888C91.933 99.3987 99.3987 91.933 107.888 85.765C116.535 79.4827 130.038 73.622 161.09 70.2577C193.389 66.7583 236.019 66.6667 300 66.6667Z" fill="#0F0F0F"/>
</svg>
