<svg width="800" height="800" viewBox="0 0 800 800" fill="none" xmlns="http://www.w3.org/2000/svg">
<path d="M400 0C179.063 0 0 179.063 0 400C0 620.937 179.063 800 400 800C620.937 800 800 620.937 800 400C800 179.063 620.937 0 400 0ZM649.687 649.531C617.187 682.031 579.531 707.5 537.5 725.156C494.063 743.594 447.813 752.812 400 752.812C352.344 752.812 306.094 743.437 262.5 725.156C220.469 707.344 182.656 681.875 150.312 649.531C117.812 617.031 92.3438 579.375 74.6875 537.344C56.25 493.906 46.875 447.656 46.875 400C46.875 352.344 56.25 306.094 74.5312 262.5C92.3437 220.469 117.812 182.656 150.156 150.312C182.812 117.812 220.469 92.3437 262.5 74.5312C306.094 56.25 352.344 46.875 400 46.875C447.656 46.875 493.906 56.25 537.5 74.5312C579.531 92.3437 617.344 117.813 649.687 150.156C682.187 182.656 707.656 220.312 725.313 262.344C743.75 305.781 752.969 352.031 752.969 399.844C752.969 447.5 743.594 493.75 725.313 537.344C707.5 579.375 682.031 617.188 649.687 649.531Z" fill="black"/>
<path d="M531.094 259.688H268.906C268.906 259.688 200 259.687 200 328.594V471.562C200 471.562 200 540.469 268.906 540.469H531.094C531.094 540.469 600 540.469 600 471.562V328.594C600 328.594 600 259.688 531.094 259.688ZM346.719 477.031V323.125L477.656 400.156L346.719 477.031Z" fill="black"/>
</svg>
