<svg width="688" height="497" viewBox="0 0 688 497" fill="none" xmlns="http://www.w3.org/2000/svg">
<path fill-rule="evenodd" clip-rule="evenodd" d="M525.376 472.09C599.117 474.774 661.12 417.28 664 343.546V152.634C661.12 78.9021 599.117 21.4058 525.376 24.0903H162.624C88.8842 21.4058 26.8794 78.9021 24 152.634V343.546C26.8794 417.28 88.8842 474.774 162.624 472.09H525.376Z" stroke="black" stroke-width="48" stroke-linecap="round" stroke-linejoin="round"/>
<path fill-rule="evenodd" clip-rule="evenodd" d="M328.256 157.691L429.408 226.426C435.962 230.253 439.99 237.27 439.99 244.858C439.99 252.448 435.962 259.466 429.408 263.29L328.256 338.49C309.056 351.514 280 340.41 280 320.058V176.059C280 155.803 309.088 144.667 328.256 157.691Z" stroke="black" stroke-width="48" stroke-linecap="round" stroke-linejoin="round"/>
</svg>
