<?xml version="1.0" standalone="no"?>
<!DOCTYPE svg PUBLIC "-//W3C//DTD SVG 20010904//EN"
 "http://www.w3.org/TR/2001/REC-SVG-20010904/DTD/svg10.dtd">
<svg version="1.0"
  xmlns="http://www.w3.org/2000/svg" width="180.000000pt" height="180.000000pt" viewBox="0 0 180.000000 180.000000" preserveAspectRatio="xMidYMid meet">

  <g transform="translate(0.000000,180.000000) scale(0.100000,-0.100000)" fill="#254D7E" stroke="none">
    <path d="M63 1780 c-66 -40 -63 4 -63 -882 0 -779 1 -804 20 -835 40 -66 -4
-63 880 -63 884 0 840 -3 880 63 19 31 20 56 20 835 0 886 3 842 -63 882 -31
19 -56 20 -837 20 -781 0 -806 -1 -837 -20z m750 -241 c10 -95 16 -173 14
-175 -3 -3 -220 35 -294 51 -23 5 -23 8 -23 150 l0 145 143 0 143 0 17 -171z
m477 26 c0 -142 0 -145 -22 -150 -33 -7 -294 -55 -300 -55 -5 0 5 78 33 273
l11 77 139 0 139 0 0 -145z m-463 -367 c-3 -46 -18 -286 -33 -535 l-29 -452
-45 -19 c-25 -11 -82 -36 -127 -55 l-83 -36 0 562 0 563 143 26 c201 37 181
43 174 -54z m268 57 c50 -8 114 -20 143 -26 l52 -10 0 -387 0 -387 -127 -56
c-71 -31 -130 -55 -132 -53 -4 4 -60 830 -61 902 0 37 3 43 18 38 9 -2 58 -12
107 -21z"/>
  </g>
</svg>
