<svg xmlns="http://www.w3.org/2000/svg" style="display: none;">
	<symbol id="church1" viewBox="0 0 800 640">
		<path d="M580.575 308.35L440 224V160H500C511.05 160 520 151.05 520 140V100C520 88.95 511.05 80 500 80H440V20C440 8.95 431.05 0 420 0H380C368.95 0 360 8.95 360 20V80H300C288.95 80 280 88.95 280 100V140C280 151.05 288.95 160 300 160H360V224L219.425 308.35C213.501 311.903 208.598 316.93 205.194 322.941C201.789 328.952 200 335.742 200 342.65V640H320V520C320 475.813 355.813 440 400 440C444.187 440 480 475.813 480 520V640H600V342.65C600 328.6 592.625 315.575 580.575 308.35ZM0 494.95V620C0 631.05 8.95 640 20 640H160V400L24.2375 458.175C17.0442 461.263 10.9143 466.393 6.60639 472.929C2.29846 479.466 0.00158782 487.122 0 494.95ZM775.762 458.175L640 400V640H780C791.05 640 800 631.05 800 620V494.95C800 478.95 790.462 464.488 775.762 458.175Z" fill="currentColor"/>
	</symbol>
	<symbol id="church2" viewBox="0 0 667 667">
		<path d="M333.347 200.001L226.605 252.037C204.866 262.635 193.996 267.934 186.048 275.934C179.021 283.011 173.67 291.571 170.39 300.991C166.68 311.641 166.68 323.731 166.68 347.917V633.334H500.014V347.917C500.014 323.731 500.014 311.641 496.304 300.991C493.024 291.571 487.674 283.011 480.647 275.934C472.697 267.934 461.827 262.635 440.087 252.037L333.347 200.001ZM333.347 200.001V33.334M400.014 100.001H266.68M166.68 366.667L92.306 403.854C70.9013 414.554 60.199 419.904 52.3797 427.887C45.465 434.947 40.2063 443.457 36.984 452.797C33.3403 463.364 33.3403 475.327 33.3403 499.261V633.334H633.34V499.257C633.34 475.327 633.34 463.361 629.697 452.797C626.474 443.457 621.217 434.947 614.304 427.887C606.484 419.904 595.78 414.554 574.377 403.851L500.014 366.667M400.014 633.334V500.001C400.014 463.181 370.167 433.334 333.347 433.334C296.527 433.334 266.68 463.181 266.68 500.001V633.334H400.014Z" stroke="currentColor" stroke-width="66.6667" stroke-linecap="round" stroke-linejoin="round" fill="none"/>
	</symbol>
	<symbol id="church3" viewBox="0 0 734 734">
		<path d="M700 500H600V466.667C606.807 466.659 613.448 464.568 619.031 460.675C624.614 456.781 628.871 451.272 631.231 444.887C633.59 438.503 633.938 431.549 632.228 424.96C630.519 418.372 626.833 412.465 621.667 408.033L400 218V133.333H433.333C442.174 133.333 450.652 129.821 456.904 123.57C463.155 117.319 466.667 108.841 466.667 100C466.667 91.1594 463.155 82.681 456.904 76.4298C450.652 70.1786 442.174 66.6667 433.333 66.6667H400V33.3333C400 24.4928 396.488 16.0143 390.237 9.76311C383.986 3.51189 375.507 0 366.667 0C357.826 0 349.348 3.51189 343.096 9.76311C336.845 16.0143 333.333 24.4928 333.333 33.3333V66.6667H300C291.159 66.6667 282.681 70.1786 276.43 76.4298C270.179 82.681 266.667 91.1594 266.667 100C266.667 108.841 270.179 117.319 276.43 123.57C282.681 129.821 291.159 133.333 300 133.333H333.333V218L111.667 408C104.952 413.751 100.797 421.933 100.116 430.747C99.4347 439.562 102.283 448.286 108.033 455C111.172 458.611 115.064 461.491 119.434 463.438C123.805 465.384 128.549 466.35 133.333 466.267V500H33.3333C24.4928 500 16.0143 503.512 9.76311 509.763C3.51189 516.014 0 524.493 0 533.333V700C0 708.841 3.51189 717.319 9.76311 723.57C16.0143 729.821 24.4928 733.333 33.3333 733.333H700C708.841 733.333 717.319 729.821 723.57 723.57C729.821 717.319 733.333 708.841 733.333 700V533.333C733.333 524.493 729.821 516.014 723.57 509.763C717.319 503.512 708.841 500 700 500ZM66.6667 566.667H133.333V666.667H66.6667V566.667ZM200 533.333V420L366.667 277.167L533.333 420V666.667H466.667V566.667C466.667 540.145 456.131 514.71 437.377 495.956C418.624 477.202 393.188 466.667 366.667 466.667C340.145 466.667 314.71 477.202 295.956 495.956C277.202 514.71 266.667 540.145 266.667 566.667V666.667H200V533.333ZM333.333 666.667V566.667C333.333 557.826 336.845 549.348 343.096 543.096C349.348 536.845 357.826 533.333 366.667 533.333C375.507 533.333 383.986 536.845 390.237 543.096C396.488 549.348 400 557.826 400 566.667V666.667H333.333ZM666.667 666.667H600V566.667H666.667V666.667Z" fill="currentColor"/>
	</symbol>
	<symbol id="group1" viewBox="0 0 800 800">
		<path fill-rule="evenodd" clip-rule="evenodd" d="M752.941 529.204C724.33 549.393 674.306 577.769 609.647 595.275C601.788 552.546 571.012 517.204 527.953 503.981C489.741 492.216 450.824 483.84 411.482 478.287C441.459 452.969 462.165 417.534 468.141 376.969C477.27 376.64 486.823 376.451 497.741 376.451C566.917 376.828 635.718 387.416 702.306 407.887C732.565 417.204 752.941 444.451 752.941 475.745V529.204ZM564.706 670.381C517.13 704.028 427.106 752.922 305.882 752.922C251.953 752.922 147.906 742.004 47.0587 670.38V616.734C47.0587 585.487 67.4825 558.193 97.7879 548.875C165.459 528.169 235.435 517.675 305.882 517.675H309.412C378.823 518.004 447.67 528.546 514.165 548.969C544.377 558.24 564.706 585.487 564.706 616.734V670.381H564.706ZM188.235 352.922V305.863C188.235 241.016 240.988 188.216 305.882 188.216C370.777 188.216 423.53 241.016 423.53 305.863V352.922C423.53 417.816 370.777 470.569 305.882 470.569C240.988 470.569 188.235 417.816 188.235 352.922H188.235ZM494.117 47.0396C525.459 47.0396 555.012 59.3221 577.27 81.5809C599.482 103.84 611.765 133.345 611.765 164.687V211.745C611.765 276.64 559.012 329.393 494.117 329.393C485.93 329.393 478.117 328.31 470.588 326.71V305.863C470.588 240.687 432.235 184.734 377.177 158.051C380.659 96.3571 431.53 47.0396 494.117 47.0396ZM716.141 362.898C678.07 351.228 639.247 342.804 599.577 337.204C635.482 306.993 658.823 262.287 658.823 211.746V164.686C658.823 120.78 641.694 79.4155 610.541 48.3096C579.388 17.1567 538.07 -0.0195312 494.117 -0.0195312C410.494 -0.0195312 341.977 62.898 331.53 143.792C323.106 142.428 314.682 141.157 305.882 141.157C215.059 141.157 141.177 215.086 141.177 305.863V352.922C141.177 403.463 164.517 448.169 200.47 478.428C161.177 483.933 122.07 492.216 84 503.886C33.7883 519.323 0 564.687 0 616.734V694.099L9.41167 701.158C124.094 787.134 244.33 799.981 305.882 799.981C449.317 799.981 553.223 738.052 602.353 701.158L611.765 694.099V643.887C697.27 622.805 759.953 583.04 790.588 559.981L800 552.923V475.745C800 423.651 766.259 378.287 716.141 362.898Z" fill="currentColor"/>
	</symbol>
	<symbol id="group2" viewBox="0 0 800 800">
		<path fill-rule="evenodd" clip-rule="evenodd" d="M306.41 140.039C397.344 140.039 471.401 214.049 471.401 305.029V352.17C471.401 402.986 447.831 447.911 411.58 478.222C450.801 484.02 489.644 492.788 527.545 505.139C578.55 521.732 612.821 570.004 612.821 625.205V708.69L601.649 715.619C539.801 754.086 438.308 800 306.41 800C233.579 800 123.177 785.34 11.125 715.62L0 708.69V629.777C0 571.182 37.1933 520.177 92.4888 502.782C128.08 491.657 164.377 483.407 200.958 477.986C164.896 447.675 141.42 402.845 141.42 352.17V305.029C141.42 214.049 215.43 140.039 306.41 140.039ZM493.085 0C584.019 0 658.075 74.01 658.075 164.99V212.13C658.075 262.947 634.505 307.919 598.255 338.183C637.475 343.981 676.272 352.796 714.22 365.1C765.225 381.787 799.496 430.012 799.496 485.213V568.698L788.371 575.627C756.032 595.757 712.617 617.723 659.961 634.27V625.219C659.961 549.512 612.633 483.233 542.158 460.323C526.82 455.323 511.318 450.842 495.678 446.888C510.574 417.802 518.541 385.465 518.541 352.184V305.043C518.541 200.675 442.692 114.22 343.368 96.6371C369.484 39.7862 426.524 0 493.085 0Z" fill="currentColor"/>
	</symbol>
	<symbol id="group3" viewBox="0 0 800 734">
		<path d="M800 496.667C800 403.333 750 330 676.667 293.333C710 260 733.333 216.667 733.333 166.667C733.333 73.3333 660 0 566.667 0C496.667 0 440 40 413.333 100C410 100 403.333 100 400 100C396.667 100 390 100 386.667 100C360 40 303.333 0 233.333 0C140 0 66.6667 73.3333 66.6667 166.667C66.6667 216.667 90 260 123.333 293.333C50 330 0 406.667 0 496.667V633.333H166.667V733.333H633.333V633.333H800V496.667ZM566.667 66.6667C623.333 66.6667 666.667 110 666.667 166.667C666.667 220 623.333 266.667 566.667 266.667C566.667 203.333 530 150 476.667 120C493.333 86.6667 526.667 66.6667 566.667 66.6667ZM500 266.667C500 323.333 456.667 366.667 400 366.667C343.333 366.667 300 323.333 300 266.667C300 210 343.333 166.667 400 166.667C456.667 166.667 500 210 500 266.667ZM233.333 66.6667C273.333 66.6667 306.667 86.6667 323.333 120C270 150 233.333 203.333 233.333 266.667C176.667 266.667 133.333 223.333 133.333 166.667C133.333 110 176.667 66.6667 233.333 66.6667ZM170 566.667H66.6667V496.667C66.6667 403.333 136.667 333.333 233.333 333.333C236.667 333.333 240 333.333 243.333 333.333C253.333 356.667 270 376.667 286.667 393.333C223.333 426.667 180 490 170 566.667ZM566.667 666.667H233.333V596.667C233.333 503.333 306.667 433.333 400 433.333C496.667 433.333 566.667 503.333 566.667 596.667V666.667ZM733.333 566.667H630C620 490 573.333 426.667 506.667 393.333C526.667 376.667 540 356.667 550 333.333C553.333 333.333 556.667 333.333 563.333 333.333C660 333.333 730 403.333 730 496.667V566.667H733.333Z" fill="currentColor"/>
	</symbol>
	<symbol id="youtube1" viewBox="0 0 800 600">
		<path fill-rule="evenodd" clip-rule="evenodd" d="M316.538 137.726C306.221 131.831 293.546 131.873 283.269 137.837C272.992 143.801 266.667 154.785 266.667 166.667V433.334C266.667 445.217 272.992 456.201 283.269 462.164C293.546 468.127 306.221 468.171 316.538 462.274L549.87 328.941C560.257 323.007 566.667 311.964 566.667 300.001C566.667 288.037 560.257 276.994 549.87 271.061L316.538 137.726ZM466.147 300.001L333.333 375.894V224.107L466.147 300.001Z" fill="currentColor"/>
		<path fill-rule="evenodd" clip-rule="evenodd" d="M0 300C0 175.009 0 112.513 31.8305 68.7023C42.1103 54.5533 54.5533 42.1103 68.7023 31.8303C112.513 1.98682e-06 175.009 0 300 0H500C624.99 0 687.487 1.98682e-06 731.297 31.8303C745.447 42.1103 757.89 54.5533 768.17 68.7023C800 112.513 800 175.009 800 300C800 424.99 800 487.487 768.17 531.297C757.89 545.447 745.447 557.89 731.297 568.17C687.487 600 624.99 600 500 600H300C175.009 600 112.513 600 68.7023 568.17C54.5533 557.89 42.1103 545.447 31.8305 531.297C0 487.487 0 424.99 0 300ZM300 66.6667H500C563.98 66.6667 606.61 66.7583 638.91 70.2577C669.963 73.622 683.467 79.4827 692.113 85.765C700.6 91.933 708.067 99.3987 714.237 107.888C720.517 116.535 726.377 130.038 729.743 161.09C733.243 193.389 733.333 236.02 733.333 300C733.333 363.98 733.243 406.61 729.743 438.91C726.377 469.963 720.517 483.467 714.237 492.113C708.067 500.6 700.6 508.067 692.113 514.237C683.467 520.517 669.963 526.377 638.91 529.743C606.61 533.243 563.98 533.333 500 533.333H300C236.019 533.333 193.389 533.243 161.09 529.743C130.038 526.377 116.535 520.517 107.888 514.237C99.3987 508.067 91.933 500.6 85.765 492.113C79.4827 483.467 73.622 469.963 70.2577 438.91C66.7583 406.61 66.6667 363.98 66.6667 300C66.6667 236.02 66.7583 193.389 70.2577 161.09C73.622 130.038 79.4827 116.535 85.765 107.888C91.933 99.3987 99.3987 91.933 107.888 85.765C116.535 79.4827 130.038 73.622 161.09 70.2577C193.389 66.7583 236.019 66.6667 300 66.6667Z" fill="currentColor"/>
	</symbol>
	<symbol id="youtube2" viewBox="0 0 688 497">
		<path fill-rule="evenodd" clip-rule="evenodd" d="M525.376 472.09C599.117 474.774 661.12 417.28 664 343.546V152.634C661.12 78.9021 599.117 21.4058 525.376 24.0903H162.624C88.8842 21.4058 26.8794 78.9021 24 152.634V343.546C26.8794 417.28 88.8842 474.774 162.624 472.09H525.376Z" stroke="currentColor" stroke-width="48" stroke-linecap="round" stroke-linejoin="round" fill="none"/>
		<path fill-rule="evenodd" clip-rule="evenodd" d="M328.256 157.691L429.408 226.426C435.962 230.253 439.99 237.27 439.99 244.858C439.99 252.448 435.962 259.466 429.408 263.29L328.256 338.49C309.056 351.514 280 340.41 280 320.058V176.059C280 155.803 309.088 144.667 328.256 157.691Z" stroke="currentColor" stroke-width="48" stroke-linecap="round" stroke-linejoin="round" fill="none"/>
	</symbol>
	<symbol id="youtube3" viewBox="0 0 800 800">
		<path d="M400 0C179.063 0 0 179.063 0 400C0 620.937 179.063 800 400 800C620.937 800 800 620.937 800 400C800 179.063 620.937 0 400 0ZM649.687 649.531C617.187 682.031 579.531 707.5 537.5 725.156C494.063 743.594 447.813 752.812 400 752.812C352.344 752.812 306.094 743.437 262.5 725.156C220.469 707.344 182.656 681.875 150.312 649.531C117.812 617.031 92.3438 579.375 74.6875 537.344C56.25 493.906 46.875 447.656 46.875 400C46.875 352.344 56.25 306.094 74.5312 262.5C92.3437 220.469 117.812 182.656 150.156 150.312C182.812 117.812 220.469 92.3437 262.5 74.5312C306.094 56.25 352.344 46.875 400 46.875C447.656 46.875 493.906 56.25 537.5 74.5312C579.531 92.3437 617.344 117.813 649.687 150.156C682.187 182.656 707.656 220.312 725.313 262.344C743.75 305.781 752.969 352.031 752.969 399.844C752.969 447.5 743.594 493.75 725.313 537.344C707.5 579.375 682.031 617.188 649.687 649.531Z" fill="currentColor"/>
		<path d="M531.094 259.688H268.906C268.906 259.688 200 259.687 200 328.594V471.562C200 471.562 200 540.469 268.906 540.469H531.094C531.094 540.469 600 540.469 600 471.562V328.594C600 328.594 600 259.688 531.094 259.688ZM346.719 477.031V323.125L477.656 400.156L346.719 477.031Z" fill="currentColor"/>
	</symbol>
	<symbol id="youtube4" viewBox="0 0 800 560">
		<path fill-rule="evenodd" clip-rule="evenodd" d="M319.538 383.445V158.972C399.226 196.469 460.944 232.692 533.938 271.745C473.734 305.134 399.226 342.597 319.538 383.445ZM763.64 47.3314C749.894 29.221 726.466 15.1236 701.524 10.4564C628.21 -3.46564 170.839 -3.50524 97.5661 10.4564C77.5643 14.206 59.7535 23.2693 44.4533 37.3509C-20.0145 97.1869 0.186647 418.068 15.7259 470.046C22.2603 492.545 30.7076 508.77 41.346 519.421C55.0524 533.502 73.8186 543.198 95.3743 547.546C155.738 560.032 466.722 567.013 700.248 549.421C721.764 545.672 740.809 535.664 755.83 520.984C815.437 461.387 811.374 122.485 763.64 47.3314Z" fill="currentColor"/>
	</symbol>
	<symbol id="facebook1" viewBox="0 0 800 800">
		<path fill-rule="evenodd" clip-rule="evenodd" d="M486.974 203.29C505.587 186.04 534.401 187.92 536.516 188.014L657.08 187.967L659.712 14.0071L641.521 9.54167C629.865 6.675 594.189 0 515.552 0C375.529 0 281.427 98.0025 281.427 243.807V282.961H140.417V470.975H281.427V800H469.442V470.975H618.067L643.919 282.961H469.442V254.148C469.442 231.258 475.364 214.101 486.974 203.29Z" fill="currentColor"/>
	</symbol>
	<symbol id="facebook2" viewBox="0 0 800 800">
		<g clip-path="url(#clip0_8279_10)">
			<path fill-rule="evenodd" clip-rule="evenodd" d="M589.589 328.965L576.71 422.972H422.021V751.997H328.014V422.972H187.003V328.965H328.014V242.807C328.014 123.278 401.434 46.0033 515.135 46.0033C563.831 46.0033 594.195 48.5887 611.727 50.9387L610.364 139.964L538.073 140.105C536.099 139.917 489.001 136.25 455.017 167.461C433.114 187.531 422.021 216.391 422.021 253.148V328.965H589.589V328.965ZM486.557 202.29C505.076 185.04 533.936 186.92 536.052 187.014L656.663 186.967L659.248 13.0071L641.105 8.54167C629.448 5.675 593.772 -1 515.135 -1C375.112 -1 281.01 97.0025 281.01 242.807V281.961H140V469.975H281.01V799H469.025V469.975H617.65L643.455 281.961H469.025V253.148C469.025 230.258 474.947 213.148 486.557 202.29Z" fill="currentColor"/>
		</g>
		<defs>
			<clipPath id="clip0_8279_10">
				<rect width="800" height="800" fill="white"/>
			</clipPath>
		</defs>
	</symbol>
	<symbol id="facebook3" viewBox="0 0 800 800">
		<path d="M400 67C216.666 67 66.6665 216.667 66.6665 401.001C66.6665 567.667 188.666 706.001 348 731.001V497.667H263.333V401.001H348V327.333C348 243.667 397.667 197.667 474 197.667C510.333 197.667 548.333 204 548.333 204V286.333H506.333C465 286.333 452 312 452 338.334V401.001H544.666L529.666 497.667H452V731.001C530.547 718.594 602.073 678.517 653.663 618.001C705.253 557.487 733.513 480.521 733.333 401.001C733.333 216.667 583.333 67 400 67Z" fill="currentColor"/>
	</symbol>
	<symbol id="facebook4" viewBox="0 0 800 800">
		<path fill-rule="evenodd" clip-rule="evenodd" d="M666.667 33.334C721.897 33.334 766.667 78.1056 766.667 133.334V666.667C766.667 721.897 721.897 766.667 666.667 766.667H133.333C78.1052 766.667 33.3335 721.897 33.3335 666.667V133.334C33.3335 78.1056 78.1052 33.334 133.333 33.334H666.667ZM666.667 100.001C685.077 100.001 700 114.925 700 133.334V666.667C700 685.077 685.077 700.001 666.667 700.001H500V466.664H569.207C583.553 466.664 596.29 457.484 600.83 443.871L615.597 399.571C620.993 383.381 608.943 366.664 591.88 366.664H500V299.998C500 283.331 516.667 266.665 533.333 266.665H600C618.41 266.665 633.333 251.741 633.333 233.331V210.465C633.333 199.698 626.457 190.044 616.043 187.296C572.35 175.766 533.333 175.766 533.333 175.766C450 175.766 400 233.331 400 283.331V366.664H333.333C314.924 366.664 300 381.587 300 399.997V433.331C300 451.741 314.924 466.664 333.333 466.664H400V700.001H133.333C114.924 700.001 100 685.077 100 666.667V133.334C100 114.925 114.924 100.001 133.333 100.001H666.667Z" fill="currentColor"/>
	</symbol>
	<symbol id="instagram1" viewBox="0 0 800 800">
		<g clip-path="url(#clip0_8279_20)">
			<path d="M400 470.313C438.75 470.313 470.468 438.75 470.468 399.844C470.468 384.531 465.468 370.313 457.187 358.75C444.375 341.094 423.593 329.375 400.156 329.375C376.718 329.375 355.937 340.938 343.125 358.75C334.843 370.313 329.843 384.531 329.843 399.844C329.687 438.75 361.25 470.313 400 470.313Z" fill="currentColor"/>
			<path d="M553.75 313.906V254.844V246.094H545L485.938 246.25L486.25 314.062L553.75 313.906Z" fill="currentColor"/>
			<path d="M509.375 400C509.375 460.312 460.312 509.375 400 509.375C339.688 509.375 290.625 460.312 290.625 400C290.625 385.469 293.594 371.563 298.75 358.906H239.062V522.656C239.062 543.75 256.25 560.937 277.344 560.937H522.656C543.75 560.937 560.938 543.75 560.938 522.656V358.906H501.25C506.563 371.563 509.375 385.469 509.375 400Z" fill="currentColor"/>
			<path d="M400 0C179.063 0 0 179.063 0 400C0 620.937 179.063 800 400 800C620.937 800 800 620.937 800 400C800 179.063 620.937 0 400 0ZM600 358.906V522.656C600 565.312 565.312 600 522.656 600H277.344C234.688 600 200 565.312 200 522.656V358.906V277.187C200 234.531 234.688 199.844 277.344 199.844H522.656C565.312 199.844 600 234.531 600 277.187V358.906Z" fill="currentColor"/>
		</g>
		<defs>
			<clipPath id="clip0_8279_20">
				<rect width="800" height="800" fill="white"/>
			</clipPath>
		</defs>
	</symbol>
	<symbol id="instagram2" viewBox="0 0 800 800">
		<path d="M300 733.333H500C666.667 733.333 733.334 666.666 733.334 499.999V299.999C733.334 133.333 666.667 66.666 500 66.666H300C133.334 66.666 66.667 133.333 66.667 299.999V499.999C66.667 666.666 133.334 733.333 300 733.333Z" stroke="currentColor" stroke-width="50" stroke-linecap="round" stroke-linejoin="round" fill="none"/>
		<path d="M400 516.667C464.433 516.667 516.666 464.434 516.666 400.001C516.666 335.567 464.433 283.334 400 283.334C335.566 283.334 283.333 335.567 283.333 400.001C283.333 464.434 335.566 516.667 400 516.667Z" stroke="currentColor" stroke-width="50" stroke-linecap="round" stroke-linejoin="round" fill="none"/>
		<path d="M587.87 233.334H588.257" stroke="currentColor" stroke-width="66.6667" stroke-linecap="round" stroke-linejoin="round"/>
	</symbol>
	<symbol id="instagram3" viewBox="0 0 800 800">
		<path fill-rule="evenodd" clip-rule="evenodd" d="M66.667 199.999C66.667 126.361 126.362 66.666 200 66.666H600C673.637 66.666 733.334 126.361 733.334 199.999V599.999C733.334 673.636 673.637 733.333 600 733.333H200C126.362 733.333 66.667 673.636 66.667 599.999V199.999ZM200 133.333C163.181 133.333 133.334 163.18 133.334 199.999V599.999C133.334 636.819 163.181 666.666 200 666.666H600C636.82 666.666 666.667 636.819 666.667 599.999V199.999C666.667 163.18 636.82 133.333 600 133.333H200ZM400 299.999C344.77 299.999 300 344.769 300 399.999C300 455.229 344.77 499.999 400 499.999C455.23 499.999 500 455.229 500 399.999C500 344.769 455.23 299.999 400 299.999ZM233.334 399.999C233.334 307.952 307.953 233.333 400 233.333C492.047 233.333 566.667 307.952 566.667 399.999C566.667 492.046 492.047 566.666 400 566.666C307.953 566.666 233.334 492.046 233.334 399.999ZM583.334 266.666C610.947 266.666 633.334 244.28 633.334 216.666C633.334 189.052 610.947 166.666 583.334 166.666C555.72 166.666 533.334 189.052 533.334 216.666C533.334 244.28 555.72 266.666 583.334 266.666Z" fill="currentColor"/>
	</symbol>
	<symbol id="instagram4" viewBox="0 0 800 800">
		<g clip-path="url(#clip0_8280_26)">
			<path d="M427.078 0.818359C630.055 0.818359 796.127 166.891 796.127 369.868V427.529C796.127 630.506 630.054 796.578 427.078 796.578H369.417C166.439 796.578 0.367188 630.506 0.367188 427.529V369.868C0.367188 166.891 166.439 0.818359 369.417 0.818359H427.078ZM405.502 200.825L400.367 200.818C357.611 200.818 314.855 202.232 314.855 202.232C252.406 202.232 201.78 252.857 201.78 315.306C201.78 315.306 200.482 352.02 200.374 391.426L200.367 396.578C200.367 440.7 201.78 486.331 201.78 486.331C201.78 548.78 252.406 599.405 314.855 599.405C314.855 599.405 354.831 600.818 396.128 600.818C440.249 600.818 487.293 599.405 487.293 599.405C549.743 599.405 598.954 550.194 598.954 487.745C598.954 487.745 600.367 442.628 600.367 399.406L600.341 389.262C600.15 350.483 598.953 313.892 598.953 313.892C598.953 251.443 549.742 202.232 487.292 202.232C487.292 202.232 446.586 200.929 405.502 200.825ZM400.367 236.817C435.428 236.817 480.381 237.977 480.381 237.977C531.59 237.977 563.208 269.594 563.208 320.803C563.208 320.803 564.367 364.989 564.367 399.658C564.367 435.1 563.208 480.831 563.208 480.831C563.208 532.04 531.59 563.657 480.381 563.657C480.381 563.657 440.627 564.632 406.134 564.794L396.891 564.817C363.027 564.817 321.766 563.657 321.766 563.657C270.558 563.657 237.527 530.625 237.527 479.418C237.527 479.418 236.367 433.52 236.367 397.34C236.367 363.477 237.527 320.803 237.527 320.803C237.527 269.594 270.559 237.977 321.766 237.977C321.766 237.977 365.306 236.817 400.367 236.817ZM400.366 298.366C343.784 298.366 297.915 344.235 297.915 400.817C297.915 457.399 343.784 503.268 400.366 503.268C456.949 503.268 502.817 457.399 502.817 400.817C502.817 344.235 456.949 298.366 400.366 298.366ZM400.366 334.15C437.186 334.15 467.033 363.998 467.033 400.817C467.033 437.636 437.186 467.484 400.366 467.484C363.548 467.484 333.699 437.636 333.699 400.817C333.699 363.998 363.547 334.15 400.366 334.15ZM507.72 269.935C494.048 269.935 482.965 281.074 482.965 294.813C482.965 308.552 494.048 319.689 507.72 319.689C521.391 319.689 532.474 308.552 532.474 294.813C532.474 281.073 521.391 269.935 507.72 269.935Z" fill="currentColor"/>
		</g>
		<defs>
			<clipPath id="clip0_8280_26">
				<rect width="800" height="800" fill="white"/>
			</clipPath>
		</defs>
	</symbol>
</svg>